<svg width="300" height="300" viewBox="0 0 300 300" fill="none" xmlns="http://www.w3.org/2000/svg">
<path d="M122.218 200H200V277.781L199.814 277.967L185.673 263.825L189.208 260.289L182.137 253.218L178.602 256.754L164.459 242.611L167.995 239.076L160.924 232.005L157.389 235.541L143.246 221.398L146.782 217.863L139.711 210.792L136.175 214.327L122.033 200.186L122.218 200ZM100.82 221.398L114.962 235.541L111.427 239.076L118.497 246.147L122.033 242.611L136.175 256.754L132.64 260.289L139.711 267.36L143.246 263.825L157.389 277.967L153.853 281.503L160.924 288.573L164.459 285.038L178.602 299.181L177.782 300H100V222.219L100.82 221.398Z" fill="#1ACCAE"/>
<path d="M200 200H250C277.614 200 300 222.386 300 250V300H200V200Z" fill="#8C5BB6"/>
<path d="M0 0H50C77.6142 0 100 22.3858 100 50C100 77.6142 77.6142 100 50 100C22.3858 100 0 77.6142 0 50V0Z" fill="#1CC875"/>
<circle cx="250" cy="150" r="50" fill="#1CC875"/>
<path d="M200 50C200 22.3858 222.386 0 250 0H300V100H250C222.386 100 200 77.6142 200 50Z" fill="#1ACCAE"/>
<path d="M50 100L100 150L50 200L0 150L50 100Z" fill="#38AD20"/>
<path d="M100 0H200V100H170V52.3607C170 44.7852 165.72 37.86 158.944 34.4721C153.314 31.6569 146.686 31.6569 141.056 34.4721C134.28 37.86 130 44.7852 130 52.3607V100H100V0Z" fill="#38AD20"/>
<path d="M0 200H100C100 211.046 91.0457 220 80 220V280C91.0457 280 100 288.954 100 300H0C0 288.954 8.95431 280 20 280V220C8.95431 220 0 211.046 0 200Z" fill="#55367B"/>
<path d="M148.422 100.544C150.197 99.513 151.617 99.9476 152.682 101.849C153.121 105.852 153.665 109.822 154.315 113.759C155.364 109.958 156.543 106.188 157.854 102.449C158.756 100.884 160.018 100.581 161.638 101.543C161.948 102.03 162.198 102.547 162.388 103.094C162.333 106.929 162.224 110.731 162.062 114.499C163.356 111.821 164.611 109.115 165.824 106.381C167.825 103.03 169.541 103.124 170.974 106.662C170.225 110.644 169.486 114.597 168.757 118.521C170.442 115.805 172.178 113.118 173.965 110.461C176.378 107.537 177.953 107.908 178.691 111.573C177.528 115.544 176.251 119.427 174.857 123.224C177.178 120.243 179.595 117.35 182.105 114.541C185.31 114.692 186.166 116.235 184.674 119.171C182.962 123.181 180.988 127.06 178.754 130.807C181.497 127.989 184.297 125.228 187.153 122.524C189.2 121.683 190.422 122.346 190.819 124.513C188.431 129.842 185.354 134.759 181.59 139.266C185.132 136.923 188.713 134.641 192.334 132.422C194.385 132.456 195.31 133.46 195.109 135.435C192.327 139.041 189.36 142.456 186.207 145.677C188.713 144.637 191.206 143.607 193.687 142.588C195.643 142.148 196.766 142.925 197.056 144.918C195.8 146.823 194.315 148.529 192.604 150.038C190.617 151.516 188.637 152.991 186.661 154.462C188.897 154.095 191.172 153.776 193.487 153.504C195.306 153.711 196.125 154.723 195.944 156.538C192.546 160.013 188.498 162.487 183.798 163.961C183.756 164.124 183.714 164.287 183.672 164.45C186.382 164.206 189.021 164.502 191.59 165.34C192.621 167.64 191.932 169.238 189.521 170.134C186.445 171.47 183.242 172.282 179.911 172.569C179.869 172.732 179.827 172.896 179.785 173.059C182.465 173.281 184.37 174.537 185.499 176.827C185.133 177.708 184.54 178.391 183.719 178.876C175.238 181.188 167.34 179.817 160.024 174.762C157.764 172.996 155.502 171.23 153.241 169.464C153.463 178.747 153.685 188.03 153.906 197.313C153.724 198.47 153.144 199.366 152.17 200C150.673 199.649 149.176 199.647 147.681 199.993C147.157 199.723 146.61 199.548 146.041 199.467C145.882 198.914 145.631 198.397 145.291 197.916C145.693 188.376 146.095 178.835 146.496 169.295C138.739 176.769 129.565 180.082 118.975 179.235C117.556 179.024 116.243 178.581 115.034 177.907C113.743 176.953 113.612 175.84 114.641 174.568C116.093 173.823 117.538 173.082 118.974 172.342C115.342 171.719 111.892 170.516 108.622 168.736C106.973 166.761 107.294 165.243 109.586 164.181C111.687 164.088 113.758 163.889 115.797 163.586C113.405 162.462 111.025 161.293 108.657 160.077C106.866 158.92 105.273 157.535 103.878 155.922C103.853 154.61 104.425 153.609 105.592 152.917C108.35 152.942 111.054 153.394 113.702 154.273C111.449 152.531 109.138 150.822 106.771 149.146C105.442 147.888 104.225 146.53 103.119 145.073C102.679 143.117 103.456 141.994 105.449 141.704C108.163 142.625 110.804 143.723 113.374 144.998C110.536 142.007 107.859 138.88 105.344 135.619C104.578 133.94 105.022 132.626 106.672 131.679C107.113 131.688 107.546 131.765 107.97 131.909C111.259 134.109 114.565 136.282 117.885 138.43C114.596 133.919 111.751 129.148 109.35 124.117C109.231 122.415 110.022 121.505 111.724 121.386C114.797 123.837 117.756 126.409 120.6 129.102C118.158 124.97 116.25 120.614 114.876 116.035C115.399 114.783 116.312 114.078 117.614 113.92C120.433 116.506 122.982 119.321 125.259 122.363C123.959 118.687 122.79 114.974 121.754 111.226C121.806 109.696 122.533 108.63 123.936 108.027C124.503 108.139 125.05 108.314 125.575 108.554C127.647 111.877 129.693 115.154 131.714 118.385C130.576 114.353 129.86 110.235 129.567 106.03C130.151 103.819 131.496 103.19 133.604 104.145C135.236 107.482 136.808 110.846 138.317 114.236C138.129 110.778 138.047 107.309 138.07 103.832C139.36 100.003 141.054 99.7776 143.153 103.156C144.264 107.076 145.234 111.016 146.064 114.977C146.535 110.145 147.321 105.334 148.422 100.544Z" fill="#55367B"/>
</svg>
